<?xml version="1.0" encoding="UTF-8"?>
<svg height="128px" viewBox="0 0 128 128" width="128px" xmlns="http://www.w3.org/2000/svg">
    <path d="m 19.996094 16 h 88 c 4.417968 0 8 3.582031 8 8 v 84 c 0 4.417969 -3.582032 8 -8 8 h -88 c -4.417969 0 -8 -3.582031 -8 -8 v -84 c 0 -4.417969 3.582031 -8 8 -8 z m 0 0"/>
    <path d="m 19.996094 12 h 88 c 4.417968 0 8 3.582031 8 8 v 84 c 0 4.417969 -3.582032 8 -8 8 h -88 c -4.417969 0 -8 -3.582031 -8 -8 v -84 c 0 -4.417969 3.582031 -8 8 -8 z m 0 0" fill="#252525"/>
    <g fill="#ccf5f2">
        <path d="m 30.402344 64 c 0 -18.550781 15.039062 -33.59375 33.59375 -33.59375 c 18.554687 0 33.59375 15.042969 33.59375 33.59375 c 0 18.554688 -15.039063 33.59375 -33.59375 33.59375 c -18.554688 0 -33.59375 -15.039062 -33.59375 -33.59375 z m 0 0"/>
        <path d="m 97.589844 64 h -33.953125 v -33.59375 h 33.953125 z m 0 0"/>
        <path d="m 97.589844 64 c 0 18.554688 -15.039063 33.59375 -33.59375 33.59375 c -18.550782 0 -33.59375 -15.039062 -33.59375 -33.59375 c 0 -18.550781 15.042968 -33.59375 33.59375 -33.59375 c 18.554687 0 33.59375 15.042969 33.59375 33.59375 z m 0 0"/>
        <path d="m 30.402344 64 h 33.953125 v 33.59375 h -33.953125 z m 0 0"/>
    </g>
    <path d="m 86.140625 64 c 0 12.230469 -9.914063 22.144531 -22.144531 22.144531 c -12.226563 0 -22.140625 -9.914062 -22.140625 -22.144531 c 0 -12.226562 9.914062 -22.140625 22.140625 -22.140625 c 12.230468 0 22.144531 9.914063 22.144531 22.140625 z m 0 0" fill="#252525"/>
</svg>
